<svg version="1.1" id="Ebene_1" xmlns="http://www.w3.org/2000/svg" xmlns:xlink="http://www.w3.org/1999/xlink" x="0px" y="0px"
width="424.527px" height="98.088px" viewBox="-165.139 -34.786 424.527 98.088"
enable-background="new -165.139 -34.786 424.527 98.088" xml:space="preserve">
<g>
<path fill="#FF3A51" d="M-74.949,7.711c4.849-0.462,8.184-1.251,11.566-2.871c3.52-1.66,6.38-3.652,8.58-5.97
c2.199-2.316,3.783-4.831,4.753-7.543c0.968-2.711,1.452-5.382,1.452-8.005v-18.108H-76.19v22.045h13.468
c-0.265,1.924-1.521,3.893-3.763,5.904c-2.246,2.014-4.377,2.89-8.465,3.525V7.711z M-41.85,61.072h23.232v-31.1
c0-7.168,1.143-12.135,3.432-14.891c2.287-2.754,5.632-4.133,10.035-4.133c3.518,0,5.959,1.051,7.326,3.148
c1.362,2.102,2.045,4.855,2.045,8.268v38.707h23.232V14.359c0-4.109-0.527-7.61-1.582-10.495c-1.056-2.888-2.576-5.248-4.555-7.086
c-1.98-1.837-4.336-3.191-7.062-4.068C11.523-8.162,8.532-8.6,5.276-8.6c-6.072,0-11.001,1.245-14.785,3.738
c-3.785,2.494-6.821,5.753-9.108,9.775v-39.699H-41.85V61.072z M58.013,45.654c-1.277-0.742-1.916-1.988-1.916-3.738
c0-3.15,2.156-5.447,6.469-6.891c4.312-1.441,10.076-2.164,17.295-2.164c0,2.275-0.553,4.266-1.65,5.969
c-1.102,1.707-2.488,3.15-4.158,4.332c-1.674,1.182-3.521,2.078-5.545,2.689c-2.025,0.611-3.918,0.916-5.676,0.916
C60.894,46.768,59.286,46.398,58.013,45.654 M61.312,20.791c-5.59,0.785-10.428,2.08-14.52,3.869
c-4.092,1.793-7.307,4.221-9.637,7.283c-2.333,3.062-3.499,7.043-3.499,11.939c0,3.41,0.572,6.344,1.717,8.793
c1.143,2.449,2.748,4.461,4.818,6.035c2.066,1.574,4.531,2.73,7.392,3.475c2.859,0.744,5.961,1.117,9.305,1.117
c4.754,0,9.131-0.789,13.137-2.363c4.006-1.572,7.412-4.154,10.232-7.74c0.613,1.75,1.539,3.215,2.771,4.395
c1.23,1.182,2.594,2.1,4.092,2.756c1.496,0.658,3.102,1.115,4.816,1.377c1.719,0.264,3.367,0.395,4.953,0.395
c1.584,0,3.277-0.154,5.08-0.461c1.805-0.307,3.191-0.676,4.16-1.113l4.488-14.957h-0.529c-0.441,0.176-0.904,0.326-1.385,0.459
c-0.484,0.131-1.168,0.195-2.045,0.195c-1.676,0-2.951-0.457-3.83-1.377c-0.881-0.918-1.32-2.906-1.32-5.971V13.311
c0-4.634-0.881-8.397-2.639-11.282c-1.762-2.89-4.072-5.118-6.934-6.693c-2.859-1.574-6.094-2.625-9.701-3.15
C78.626-8.338,74.976-8.6,71.279-8.6c-7.568,0-14.434,1.18-20.594,3.542c-6.16,2.361-11.44,5.992-15.839,10.891l14.652,12.07
c1.76-2.271,4.135-4.24,7.129-5.902c2.99-1.663,6.951-2.494,11.881-2.494c2.375,0,4.268,0.154,5.676,0.46
c1.406,0.306,2.51,0.831,3.301,1.573c0.791,0.744,1.318,1.729,1.584,2.953c0.264,1.227,0.396,2.756,0.396,4.594
C72.95,19.436,66.9,20.002,61.312,20.791 M152.991,59.037c3.873-2.578,6.951-5.881,9.24-9.906l-0.266,11.941h23.236V-6.763h-23.236
v31.097c0,3.586-0.283,6.604-0.855,9.053c-0.574,2.449-1.432,4.416-2.574,5.904c-1.146,1.488-2.553,2.539-4.227,3.148
c-1.672,0.613-3.609,0.918-5.809,0.918c-3.52,0-5.963-1.049-7.326-3.148s-2.043-4.855-2.043-8.266V-6.763h-23.234v46.71
c0,4.111,0.527,7.609,1.584,10.496c1.055,2.887,2.572,5.248,4.553,7.086s4.311,3.195,6.996,4.066
c2.686,0.873,5.699,1.312,9.045,1.312C144.148,62.908,149.116,61.619,152.991,59.037 M250.677,57.463
c5.809-3.717,8.711-9.645,8.711-17.779c0-4.547-0.971-8.221-2.902-11.021c-1.938-2.797-4.445-5.006-7.525-6.625
c-3.082-1.619-6.557-2.775-10.43-3.479c-3.873-0.697-7.744-1.182-11.615-1.441c-2.641-0.176-4.799-0.395-6.469-0.656
c-1.672-0.262-2.971-0.568-3.895-0.92c-0.924-0.348-1.541-0.766-1.848-1.246c-0.311-0.479-0.463-1.027-0.463-1.639
c0-0.525,0.109-1.027,0.332-1.512c0.217-0.479,0.68-0.917,1.385-1.31s1.717-0.722,3.035-0.985c1.32-0.261,3.123-0.392,5.414-0.392
c5.631,0,10.1,0.547,13.398,1.639c3.303,1.095,6.006,2.384,8.119,3.871l10.561-15.22c-2.641-1.836-6.648-3.496-12.014-4.985
c-5.369-1.487-11.795-2.229-19.271-2.229c-4.49,0-8.695,0.416-12.609,1.245c-3.918,0.832-7.326,2.12-10.229,3.869
c-2.906,1.752-5.195,4.026-6.865,6.824c-1.674,2.8-2.508,6.212-2.508,10.235c0,4.111,0.68,7.502,2.045,10.168
c1.363,2.67,3.277,4.854,5.744,6.561c2.463,1.705,5.455,2.996,8.975,3.871c3.518,0.875,7.391,1.576,11.615,2.1
c3.17,0.35,5.744,0.611,7.723,0.787c1.982,0.178,3.545,0.393,4.689,0.656c1.141,0.262,1.912,0.613,2.311,1.049
c0.396,0.439,0.594,1.139,0.594,2.1c0,1.488-0.707,2.625-2.113,3.412c-1.41,0.785-4.314,1.182-8.713,1.182
c-3.166,0-5.939-0.199-8.314-0.592c-2.379-0.393-4.49-0.961-6.34-1.705c-1.846-0.742-3.52-1.594-5.014-2.561
c-1.498-0.959-2.904-2.008-4.227-3.148L189.82,50.969c4.137,3.938,9.195,6.934,15.18,8.988c5.986,2.055,13.248,3.082,21.783,3.082
C236.902,63.039,244.868,61.18,250.677,57.463"/>
<path fill="#FF3A51" d="M-131.403,61.057c34.31,0,50.897-19.775,50.897-48.682c0-29.792-18.501-47.161-50.26-47.161h-34.374v95.842
H-131.403z M-140.14-13.551h10.11c14.539,0,23.634,7.545,23.634,26.561c0,18.764-8.584,26.816-23.378,26.816h-10.366V-13.551z"/>
</g>
</svg>
